<svg viewBox="0 0 100 100" fill="none" xmlns="http://www.w3.org/2000/svg">
  <defs><linearGradient id="bg" x1="0" y1="0" x2="1" y2="1"><stop offset="0%" stop-color="#6366F1"/><stop offset="100%" stop-color="#3B82F6"/></linearGradient></defs>
  <rect width="100" height="100" rx="22" fill="url(#bg)"/>
  <text x="38" y="34" text-anchor="middle" dominant-baseline="central"
    font-family="Inter, -apple-system, sans-serif" font-weight="900" font-size="46"
    fill="rgba(255,255,255,0.92)" letter-spacing="-4">C</text>
  <text x="64" y="34" text-anchor="middle" dominant-baseline="central"
    font-family="Inter, -apple-system, sans-serif" font-weight="900" font-size="46"
    fill="rgba(255,255,255,0.4)" letter-spacing="-4">G</text>
  <polygon points="50,56 15,70 50,66 85,70" fill="rgba(255,255,255,0.8)"/>
  <polygon points="50,66 85,70 85,73 50,69" fill="rgba(255,255,255,0.35)"/>
  <polygon points="50,66 15,70 15,73 50,69" fill="rgba(255,255,255,0.5)"/>
  <polygon points="15,76 50,72 85,76 50,80" fill="rgba(255,255,255,0.4)"/>
  <polygon points="15,76 50,80 50,82 15,78" fill="rgba(255,255,255,0.22)"/>
  <polygon points="50,80 85,76 85,78 50,82" fill="rgba(255,255,255,0.14)"/>
  <polygon points="15,85 50,81 85,85 50,89" fill="rgba(255,255,255,0.2)"/>
  <polygon points="15,85 50,89 50,91 15,87" fill="rgba(255,255,255,0.10)"/>
  <polygon points="50,89 85,85 85,87 50,91" fill="rgba(255,255,255,0.06)"/>
</svg>